<svg xmlns="http://www.w3.org/2000/svg" xmlns:xlink="http://www.w3.org/1999/xlink" viewBox="0 0 1310.01 832.12"><defs><style>.cls-1,.cls-3,.cls-6{fill:none;}.cls-2{fill:#161616;}.cls-3,.cls-6{stroke:#707070;stroke-miterlimit:10;}.cls-3{stroke-width:3px;}.cls-4{clip-path:url(#clip-path);}.cls-5{fill:#1d1d1d;}.cls-7{fill:#6d6d6d;}</style><clipPath id="clip-path" transform="translate(17.98 44.58)"><polygon class="cls-1" points="260.04 26.71 1014.5 26.71 1183.22 702.59 90.83 702.59 260.04 26.71"/></clipPath></defs><g id="레이어_2" data-name="레이어 2"><g id="레이어_1-2" data-name="레이어 1"><path class="cls-2" d="M222.5.72l832-.72a12,12,0,0,1,11.54,8.7l210.66,735.41a12,12,0,0,1-11.53,15.3H12A12,12,0,0,1,.47,744.11L211,9.41A12,12,0,0,1,222.5.72Z" transform="translate(17.98 44.58)"/><polygon class="cls-3" points="278.02 71.29 1032.48 71.29 1201.2 747.17 108.81 747.17 278.02 71.29"/><g class="cls-4"><rect class="cls-5" x="73.13" width="1162.39" height="832.12"/><ellipse class="cls-2" cx="655" cy="429.78" rx="655" ry="394.76"/><ellipse class="cls-5" cx="655.06" cy="408.97" rx="591.85" ry="339.9"/><ellipse class="cls-2" cx="655.1" cy="394.55" rx="514.6" ry="295.26"/><ellipse class="cls-5" cx="654.8" cy="381.52" rx="439.08" ry="250.76"/><ellipse class="cls-2" cx="655" cy="371.37" rx="364.56" ry="208.3"/><ellipse class="cls-5" cx="654.67" cy="362.61" rx="291.21" ry="165.16"/><ellipse class="cls-2" cx="655.05" cy="355.48" rx="218.22" ry="123.56"/><ellipse class="cls-5" cx="654.94" cy="349.94" rx="148.42" ry="85.09"/><ellipse class="cls-2" cx="654.93" cy="347.52" rx="74.32" ry="42.16"/></g><path class="cls-6" d="M99,670.12q38.82,2.26,43.49,32.47" transform="translate(17.98 44.58)"/><path class="cls-6" d="M1132.58,702.59c1-17.36,12.68-29.22,42.51-32.55" transform="translate(17.98 44.58)"/><path class="cls-6" d="M979.91,26.71s3.42,15.38,38.65,16.27" transform="translate(17.98 44.58)"/><path class="cls-6" d="M256,43c19.32-.23,32.69-5.34,38.93-16.28" transform="translate(17.98 44.58)"/><polyline class="cls-6" points="396.39 71.29 376.49 181.57 933.98 181.57 914.95 71.29"/><polyline class="cls-6" points="527.46 71.29 524.01 110.11 785.94 110.11 782.72 71.29"/><path class="cls-6" d="M546.77,137c56.88,24.52,116.58,27.91,180.45,0" transform="translate(17.98 44.58)"/><line class="cls-6" x1="209.24" y1="346.03" x2="1101.06" y2="346.03"/><polyline class="cls-6" points="278.23 747.17 312.13 550.27 995.79 550.27 1030.19 747.17"/><polyline class="cls-6" points="468.79 747.17 475.65 668.99 832 668.99 839.09 747.17"/><path class="cls-6" d="M527.67,505.7c73.3-36.26,146.2-36.06,218.7,0" transform="translate(17.98 44.58)"/><ellipse class="cls-6" cx="654.91" cy="350.92" rx="147.34" ry="82.86"/><polygon class="cls-3" points="278.02 71.29 1032.48 71.29 1201.2 747.17 108.81 747.17 278.02 71.29"/><ellipse class="cls-7" cx="655.33" cy="144.88" rx="8.2" ry="5.04"/><ellipse class="cls-7" cx="654.91" cy="346.28" rx="8.96" ry="6.07"/><ellipse class="cls-7" cx="654.91" cy="609" rx="10.44" ry="7.7"/></g></g></svg>